<svg width="57" height="34" fill="none" xmlns="http://www.w3.org/2000/svg"><path d="M1093.3 0c-14.4 0-14.4 14-28.7 14-14.3 0-14.4-14-28.7-14-14.3 0-14.4 14-28.7 14-14.4 0-14.4-14-28.8-14S964 14 949.7 14C935.3 14 935.3 0 921 0c-14.4 0-14.4 14-28.7 14-14.3 0-14.7-14-29-14-14.4 0-14.4 14-28.7 14-14.3 0-14.5-14-28.8-14-14.4 0-14.4 14-28.7 14-14.4 0-14.4-14-28.8-14s-14.4 14-28.7 14c-14.4 0-14.4-14-28.7-14-14.3 0-14.5 14-28.9 14-14.4 0-14.4-14-28.7-14-14.4 0-14.4 14-28.7 14-14.4 0-14.4-14-28.8-14s-14.4 14-28.7 14c-14.4 0-14.4-14-28.7-14C504 0 504 14 489.7 14 475.3 14 475.3 0 461 0c-14.4 0-14.4 14-28.8 14S417.8 0 403.4 0 389 14 374.6 14 360.2 0 345.8 0 331.4 14 317 14 302.6 0 288.2 0s-14.4 14-28.8 14S245 0 230.6 0s-14.4 14-28.7 14c-14.4 0-14.4-14-28.8-14s-14.4 14-28.8 14-14.4-14-28.8-14-14.4 14-28.8 14S72.3 0 57.9 0c-14 0-14 14-28.4 14C15.1 14 15.1 0 .8 0-13.5 0-13.6 14-28 14v20h1150V14c-14.4 0-14.4-14-28.7-14Z" fill="#fff"/></svg>