<svg width="39" height="17" fill="none" xmlns="http://www.w3.org/2000/svg"><path d="M752 17c-6.042 0-9.197-3.4-11.748-6.135-2.282-2.439-3.96-4.213-7.518-4.213-3.625 0-5.237 1.774-7.519 4.213C722.664 13.6 719.509 17 713.467 17c-6.042 0-9.197-3.4-11.748-6.135-2.282-2.439-3.96-4.213-7.518-4.213s-5.237 1.774-7.519 4.213C684.131 13.6 680.976 17 674.934 17c-6.042 0-9.197-3.4-11.748-6.135-2.282-2.439-3.96-4.213-7.518-4.213-3.625 0-5.236 1.774-7.519 4.213C645.598 13.6 642.443 17 636.401 17c-6.041 0-9.196-3.4-11.747-6.135-2.283-2.439-3.961-4.213-7.519-4.213-3.625 0-5.236 1.774-7.519 4.213C606.797 13.6 603.642 17 597.6 17s-9.197-3.4-11.748-6.135c-2.282-2.439-3.961-4.213-7.518-4.213-3.626 0-5.237 1.774-7.519 4.213C568.264 13.6 565.109 17 559.067 17c-6.042 0-9.197-3.4-11.748-6.135-2.282-2.439-3.96-4.213-7.518-4.213-3.625 0-5.236 1.774-7.519 4.213C529.597 13.6 526.442 17 520.4 17s-9.197-3.4-11.748-6.135c-2.282-2.439-3.961-4.213-7.518-4.213-3.626 0-5.237 1.774-7.519 4.213C491.064 13.6 487.909 17 481.867 17c-6.042 0-9.197-3.4-11.748-6.135-2.282-2.439-3.96-4.213-7.518-4.213s-5.236 1.774-7.519 4.213C452.464 13.6 449.242 17 443.2 17s-9.197-3.4-11.748-6.135c-2.282-2.439-3.961-4.213-7.518-4.213-3.625 0-5.237 1.774-7.519 4.213C413.864 13.6 410.709 17 404.667 17c-6.042 0-9.197-3.4-11.748-6.135-2.282-2.439-3.96-4.213-7.518-4.213-3.625 0-5.236 1.774-7.519 4.213C375.331 13.6 372.176 17 366.134 17c-6.041 0-9.197-3.4-11.748-6.135-2.282-2.439-3.96-4.213-7.518-4.213s-5.236 1.774-7.519 4.213C336.798 13.6 333.643 17 327.601 17c-6.041 0-9.196-3.4-11.747-6.135-2.283-2.439-3.961-4.213-7.519-4.213-3.625 0-5.236 1.774-7.519 4.213C298.265 13.6 295.11 17 289.069 17c-6.042 0-9.197-3.4-11.748-6.135-2.283-2.439-3.961-4.213-7.519-4.213-3.625 0-5.236 1.774-7.519 4.213C259.733 13.6 256.577 17 250.536 17c-6.042 0-9.197-3.4-11.748-6.135-2.283-2.439-3.961-4.213-7.519-4.213-3.625 0-5.236 1.774-7.518 4.213C221.2 13.6 218.045 17 212.003 17c-6.042 0-9.197-3.4-11.748-6.135-2.282-2.439-3.961-4.213-7.519-4.213-3.558 0-5.236 1.774-7.518 4.213C182.667 13.6 179.512 17 173.47 17c-6.042 0-9.197-3.4-11.748-6.135-2.282-2.439-3.961-4.213-7.519-4.213-3.625 0-5.236 1.774-7.518 4.213C144.134 13.6 140.979 17 134.937 17c-6.042 0-9.197-3.4-11.748-6.135-2.282-2.439-3.96-4.213-7.518-4.213-3.625 0-5.237 1.774-7.519 4.213C105.601 13.6 102.446 17 96.404 17c-6.042 0-9.197-3.4-11.748-6.135-2.282-2.439-3.96-4.213-7.518-4.213-3.625 0-5.236 1.774-7.519 4.213C66.464 13.6 63.242 17 57.2 17c-6.042 0-9.197-3.4-11.748-6.135-2.282-2.439-3.96-4.213-7.518-4.213-3.625 0-5.237 1.774-7.519 4.213C27.864 13.6 24.709 17 18.667 17c-6.042 0-9.197-3.4-11.748-6.135C4.57 8.426 2.891 6.652-.666 6.652c-3.625 0-5.237 1.774-7.519 4.213C-10.803 13.6-13.958 17-20 17v-6.652c3.625 0 5.236-1.774 7.519-4.213C-9.931 3.4-6.775 0-.666 0 5.375 0 8.53 3.4 11.08 6.135c2.283 2.439 3.961 4.213 7.519 4.213 3.625 0 5.236-1.774 7.519-4.213C28.669 3.4 31.892 0 37.934 0c6.041 0 9.196 3.4 11.747 6.135 2.283 2.439 3.961 4.213 7.519 4.213 3.625 0 5.236-1.774 7.519-4.213C67.269 3.4 70.425 0 76.466 0c6.042 0 9.197 3.4 11.748 6.135 2.283 2.439 3.96 4.213 7.519 4.213 3.625 0 5.236-1.774 7.518-4.213C105.802 3.4 108.958 0 114.999 0c6.042 0 9.197 3.4 11.748 6.135 2.283 2.439 3.961 4.213 7.519 4.213 3.625 0 5.236-1.774 7.518-4.213C144.335 3.4 147.49 0 153.532 0c6.042 0 9.197 3.4 11.748 6.135 2.282 2.439 3.961 4.213 7.519 4.213 3.625 0 5.236-1.774 7.518-4.213C182.868 3.4 186.023 0 192.065 0c6.042 0 9.197 3.4 11.748 6.135 2.282 2.439 3.961 4.213 7.518 4.213 3.626 0 5.237-1.774 7.519-4.213C221.401 3.4 224.556 0 230.598 0c6.042 0 9.197 3.4 11.748 6.135 2.282 2.439 3.96 4.213 7.518 4.213s5.237-1.774 7.519-4.213C259.934 3.4 263.089 0 269.131 0c6.042 0 9.197 3.4 11.748 6.135 2.282 2.439 3.96 4.213 7.518 4.213 3.625 0 5.236-1.774 7.519-4.213C298.467 3.4 301.622 0 307.664 0c6.041 0 9.197 3.4 11.747 6.135 2.283 2.439 3.961 4.213 7.519 4.213 3.625 0 5.236-1.774 7.519-4.213C337 3.4 340.155 0 346.197 0c6.041 0 9.196 3.4 11.747 6.135 2.283 2.439 3.961 4.213 7.519 4.213 3.625 0 5.236-1.774 7.519-4.213C375.533 3.4 378.688 0 384.729 0c6.042 0 9.197 3.4 11.748 6.135 2.283 2.439 3.961 4.213 7.519 4.213 3.625 0 5.236-1.774 7.518-4.213C414.065 3.4 417.221 0 423.262 0c6.042 0 9.197 3.4 11.748 6.135 2.283 2.439 3.961 4.213 7.519 4.213 3.625 0 5.236-1.774 7.518-4.213C452.598 3.4 455.753 0 461.795 0c6.042 0 9.197 3.4 11.748 6.135 2.282 2.439 3.961 4.213 7.519 4.213 3.625 0 5.236-1.774 7.518-4.213C491.131 3.4 494.286 0 500.328 0c6.042 0 9.197 3.4 11.748 6.135 2.282 2.439 3.96 4.213 7.518 4.213 3.625 0 5.237-1.774 7.519-4.213C530.47 3.4 533.625 0 539.734 0c6.041 0 9.196 3.4 11.747 6.135 2.283 2.439 3.961 4.213 7.519 4.213 3.558 0 5.236-1.774 7.519-4.213C569.07 3.4 572.225 0 578.266 0c6.042 0 9.197 3.4 11.748 6.135 2.283 2.439 3.961 4.213 7.519 4.213 3.558 0 5.236-1.774 7.518-4.213C607.67 3.4 610.825 0 616.934 0c6.108 0 9.196 3.4 11.747 6.135 2.283 2.439 3.961 4.213 7.519 4.213 3.558 0 5.236-1.774 7.519-4.213C646.27 3.4 649.425 0 655.466 0c6.042 0 9.197 3.4 11.748 6.135 2.283 2.439 3.961 4.213 7.519 4.213 3.625 0 5.236-1.774 7.518-4.213C684.802 3.4 687.958 0 693.999 0c6.042 0 9.197 3.4 11.748 6.135 2.283 2.439 3.961 4.213 7.519 4.213 3.558 0 5.236-1.774 7.518-4.213C723.335 3.4 726.49 0 732.532 0c6.042 0 9.197 3.4 11.748 6.135 2.282 2.439 3.961 4.213 7.519 4.213V17H752Z" fill="#F1F1F1"/></svg>